# This file uses centimeters as units for non-parametric coordinates.

mtllib sm_roadcone_01_lod1.mtl
g default
v 15.307617 2.500000 -13.145020
v 13.145020 2.500000 -15.307602
v 13.497253 2.500000 -8.933634
v 9.051086 2.500000 -13.418768
v 13.462372 3.284734 -14.932175
v 14.924683 3.288236 -13.465179
v 8.643158 3.811862 -12.813985
v 12.889801 3.809999 -8.531556
v -13.145020 2.500000 -15.307594
v -15.307587 2.500000 -13.145004
v -8.933624 2.500000 -13.497252
v -13.418762 2.500000 -9.051083
v -14.932159 3.284734 -13.462367
v -13.465179 3.288236 -14.924675
v -12.813965 3.811862 -8.643145
v -8.531555 3.809999 -12.889792
v -15.307587 2.500000 13.145020
v -13.144989 2.500000 15.307602
v -13.497253 2.500000 8.933638
v -9.051086 2.500000 13.418770
v -13.462372 3.284734 14.932175
v -14.924683 3.288236 13.465179
v -8.643127 3.811862 12.813988
v -12.889771 3.809999 8.531560
v 12.250519 2.500000 -17.500000
v -12.250519 2.500000 -17.500000
v -17.500000 2.500000 -12.250525
v -17.500000 2.500000 12.250525
v -12.250519 2.500000 17.500000
v 12.250519 2.500000 17.500000
v 13.145020 2.500000 15.307596
v 15.307617 2.500000 13.145006
v 17.500000 2.500000 12.250525
v 17.500000 2.500000 -12.250525
v 15.861023 2.500000 3.226972
v 3.226990 2.500000 -15.861024
v -15.861023 2.500000 -3.226968
v -3.226959 2.500000 15.861033
v 8.933655 2.500000 13.497252
v 13.418762 2.500000 9.051083
v 0.000000 48.500000 0.000001
v 14.723511 3.808601 2.995545
v 2.995575 3.808601 -14.723507
v -14.723511 3.808601 -2.995537
v -2.995514 3.808601 14.723510
v 8.533142 3.804873 12.892172
v 12.815491 3.808600 8.644159
v 12.397125 5.797620 2.522228
v 10.549591 5.797620 -6.982602
v 2.522247 5.797621 -12.397114
v -6.982574 5.797621 -10.549563
v -12.397125 5.797621 -2.522228
v -10.549561 5.797621 6.982602
v -2.522217 5.797621 12.397118
v 6.982605 5.797621 10.549574
v 2.944122 48.500000 0.598987
v 2.505341 48.500000 -1.658240
v 0.598999 48.500000 -2.944118
v -1.658264 48.500000 -2.505351
v -2.944122 48.500000 -0.598990
v -2.505341 48.500000 1.658247
v -0.598969 48.500000 2.944120
v 1.658264 48.500000 2.505349
v 14.932190 3.284734 13.462369
v 13.465179 3.288236 14.924677
v -17.500000 -0.000002 12.250525
v -12.250519 -0.000002 17.500000
v 17.500000 -0.000002 12.250525
v 12.250519 -0.000002 17.500000
v -17.500000 -0.000002 -12.250525
v -12.250519 -0.000002 -17.500000
v 17.500000 -0.000002 -12.250525
v 12.250519 -0.000002 -17.500000
v -2.202576 0.000000 -11.331153
v 2.301331 0.000001 -11.311500
v -11.311493 0.000001 -2.301357
v -11.331116 0.000001 2.202553
v -2.301300 0.000000 11.311504
v 2.202576 0.000000 11.331153
v 11.311523 0.000001 2.301357
v 11.331177 0.000001 -2.202539
v 0.000000 45.365547 0.000002
v 1.751862 45.208103 0.007646
v 1.233337 45.208103 1.244145
v 1.244171 45.208107 -1.233328
v 0.007690 45.208103 -1.751837
v -1.233307 45.208103 -1.244143
v -1.751831 45.208103 -0.007645
v -1.244110 45.208103 1.233330
v -0.007629 45.208103 1.751840
v 9.688416 2.699999 -1.883247
v 9.671829 2.699999 1.967739
v 1.883224 2.699999 9.688524
v -1.967621 2.699999 9.671723
v -9.688354 2.699999 1.883258
v -9.671829 2.699999 -1.967739
v -1.883224 2.699999 -9.688524
v 1.967682 2.700000 -9.671721
vt 0.443090 0.526480
vt 0.438756 0.536934
vt 0.381806 0.499294
vt 0.387922 0.518005
vt 0.460232 0.509294
vt 0.470749 0.505131
vt 0.434028 0.446633
vt 0.452459 0.452878
vt 0.090314 0.509539
vt 0.079879 0.505369
vt 0.117601 0.448092
vt 0.098922 0.454431
vt 0.107577 0.526570
vt 0.111889 0.537090
vt 0.170087 0.500496
vt 0.164064 0.518922
vt 0.107354 0.154334
vt 0.111694 0.143869
vt 0.168643 0.181548
vt 0.162529 0.162815
vt 0.090204 0.171536
vt 0.079677 0.175706
vt 0.116411 0.234238
vt 0.097981 0.227992
vt 0.429015 0.566872
vt 0.121633 0.566872
vt 0.050231 0.496580
vt 0.050105 0.184536
vt 0.121446 0.113896
vt 0.500278 0.496316
vt 0.310777 0.517156
vt 0.099883 0.376511
vt 0.239685 0.163709
vt 0.500189 0.184496
vt 0.479532 0.299295
vt 0.315860 0.546157
vt 0.070883 0.381687
vt 0.428898 0.114021
vt 0.234619 0.134676
vt 0.438616 0.143861
vt 0.386438 0.161996
vt 0.470574 0.175653
vt 0.451489 0.226555
vt 0.419282 0.310260
vt 0.450535 0.304452
vt 0.400469 0.423997
vt 0.304994 0.485938
vt 0.192692 0.466873
vt 0.131139 0.370685
vt 0.149967 0.256856
vt 0.245442 0.194986
vt 0.357715 0.214101
vt 0.380381 0.180639
vt 0.433103 0.232832
vt 0.725634 0.350842
vt 0.764142 0.343007
vt 0.758403 0.372531
vt 0.733469 0.389350
vt 0.703945 0.383611
vt 0.687126 0.358676
vt 0.692866 0.329153
vt 0.717800 0.312334
vt 0.747324 0.318073
vt 0.460153 0.171461
vt 0.442918 0.154395
vt 0.523385 0.495112
vt 0.523385 0.184560
vt 0.591486 0.115899
vt 0.902995 0.115743
vt 0.971214 0.184389
vt 0.597008 0.095226
vt 0.597008 0.063334
vt 0.909566 0.063334
vt 0.076463 0.047128
vt 0.076460 0.063334
vt 0.076460 0.095226
vt 0.597012 0.047128
vt 0.180458 0.047128
vt 0.180458 0.015235
vt 0.493017 0.015235
vt 0.493017 0.047128
vt 0.180456 0.095226
vt 0.180456 0.063334
vt 0.493014 0.063334
vt 0.493014 0.095226
vt 0.094056 0.578738
vt 0.096608 0.984219
vt 0.903044 0.563794
vt 0.894100 0.369341
vt 0.894375 0.311408
vt 0.776921 0.192921
vt 0.718929 0.192693
vt 0.600487 0.310283
vt 0.600216 0.368217
vt 0.717650 0.486540
vt 0.775568 0.487071
vt 0.776197 0.345316
vt 0.768945 0.327588
vt 0.793971 0.327697
vt 0.776352 0.309924
vt 0.793861 0.352724
vt 0.811590 0.345471
vt 0.818997 0.327807
vt 0.811744 0.310078
vt 0.794080 0.302671
vt 0.768551 0.450979
vt 0.724398 0.451138
vt 0.858339 0.362665
vt 0.858700 0.318474
vt 0.770264 0.228686
vt 0.726055 0.228381
vt 0.636240 0.316959
vt 0.635872 0.361174
vt 0.971244 0.495149
vt 0.591546 0.563766
vt 0.176888 0.270127
vt 0.912666 0.984220
vt 0.368967 0.422051
vt 0.353438 0.425062
vt 0.327387 0.249192
vt 0.321918 0.249841
vt 0.306116 0.427172
vt 0.290381 0.425555
vt 0.316412 0.249681
vt 0.310990 0.248717
vt 0.192417 0.267115
vt 0.218469 0.442985
vt 0.234865 0.443460
vt 0.223938 0.442337
vt 0.255474 0.266623
vt 0.239739 0.265005
vt 0.229443 0.442496
vt 0.555963 0.578738
vt 0.562926 0.984220
vt 0.446347 0.984219
vt 0.446347 0.578738
vt 0.679506 0.984220
vt 0.322804 0.578738
vt 0.679507 0.578739
vt 0.329766 0.984219
vt 0.789123 0.578739
vt 0.796086 0.984220
vt 0.213187 0.984219
vt 0.213188 0.578738
vt 0.912666 0.578739
vt 0.909568 0.047128
vt 0.597012 0.015235
vt 0.909568 0.015235
vt 0.909566 0.095226
vt 0.076463 0.015235
vn 0.205511 0.861748 -0.463850
vn 0.067876 0.953331 -0.294200
vn -0.037160 0.982684 -0.181524
vn 0.004086 0.948991 -0.315277
vn 0.293911 0.953207 -0.070799
vn 0.094119 0.995405 0.017647
vn 0.597167 0.790458 -0.136265
vn 0.195211 0.980761 -0.000288
vn -0.463849 0.861747 -0.205512
vn -0.294199 0.953331 -0.067877
vn -0.181523 0.982684 0.037160
vn -0.315276 0.948991 -0.004086
vn -0.070799 0.953207 -0.293911
vn 0.017647 0.995405 -0.094120
vn -0.136265 0.790459 -0.597165
vn -0.000288 0.980761 -0.195211
vn -0.205511 0.861748 0.463850
vn -0.067879 0.953331 0.294197
vn 0.037161 0.982684 0.181524
vn -0.004085 0.948991 0.315277
vn -0.293910 0.953208 0.070799
vn -0.094120 0.995404 -0.017647
vn -0.597164 0.790460 0.136266
vn -0.195210 0.980761 0.000288
vn 0.000000 1.000000 0.000000
vn 0.000000 1.000000 0.000000
vn 0.000000 1.000000 0.000000
vn 0.000000 1.000000 0.000000
vn 0.000000 1.000000 0.000000
vn 0.000000 1.000000 0.000000
vn 0.152298 0.988332 0.002400
vn 0.000000 1.000000 0.000000
vn 0.002421 0.988323 -0.152356
vn -0.152356 0.988323 -0.002422
vn -0.002452 0.988349 0.152185
vn 0.000000 1.000000 0.000000
vn -0.017572 0.995424 0.093924
vn 0.000305 0.980833 0.194850
vn 0.181297 0.982730 -0.037065
vn 0.314936 0.949104 0.004110
vn 0.560947 0.825753 0.058910
vn 0.662862 0.747483 0.043403
vn 0.531740 0.814593 -0.231710
vn 0.058743 0.825813 -0.560876
vn 0.043305 0.747461 -0.662893
vn -0.231709 0.814595 -0.531739
vn -0.560877 0.825813 -0.058744
vn -0.662893 0.747461 -0.043305
vn -0.531740 0.814594 0.231711
vn -0.058583 0.825694 0.561069
vn -0.043287 0.747518 0.662830
vn 0.136300 0.790501 0.597101
vn 0.231920 0.814357 0.532010
vn 0.463822 0.861724 0.205671
vn 0.813390 0.220352 -0.538370
vn 0.955839 0.220352 0.194468
vn 0.955838 0.220352 0.194468
vn 0.813390 0.220352 -0.538370
vn 0.194469 0.220352 -0.955838
vn 0.194468 0.220352 -0.955838
vn -0.538369 0.220352 -0.813390
vn -0.538369 0.220352 -0.813390
vn -0.955839 0.220352 -0.194468
vn -0.955839 0.220352 -0.194468
vn -0.813389 0.220352 0.538372
vn -0.813389 0.220352 0.538372
vn -0.194468 0.220352 0.955838
vn -0.194468 0.220352 0.955838
vn 0.538371 0.220352 0.813389
vn 0.538371 0.220352 0.813389
vn 0.000000 1.000000 0.000000
vn 0.000000 1.000000 0.000000
vn 0.000000 1.000000 0.000000
vn 0.000000 1.000000 0.000000
vn 0.000000 1.000000 0.000000
vn 0.000000 1.000000 0.000000
vn 0.000000 1.000000 0.000000
vn 0.000000 1.000000 0.000000
vn 0.000000 1.000000 0.000000
vn 0.293413 0.953588 0.067670
vn 0.070396 0.953453 0.293209
vn -0.173766 0.000000 0.984787
vn -0.173766 0.000000 0.984787
vn 0.000000 0.000000 1.000000
vn 0.000000 0.000000 1.000000
vn 0.000000 0.000000 -1.000000
vn 0.000000 0.000000 -1.000000
vn 0.173766 0.000000 -0.984787
vn 0.173766 0.000000 -0.984787
vn 0.984787 0.000000 0.173766
vn 0.984787 0.000000 0.173766
vn 0.984787 0.000000 -0.173766
vn 0.984787 0.000000 -0.173766
vn -0.984787 0.000000 -0.173766
vn -0.984787 0.000000 -0.173766
vn -0.984787 0.000000 0.173766
vn -0.984787 0.000000 0.173766
vn 0.707106 0.000000 0.707107
vn 0.707106 0.000000 0.707107
vn -0.707106 0.000000 -0.707107
vn -0.707106 0.000000 -0.707107
vn -0.069063 -0.991798 0.107546
vn 0.068184 -0.991784 0.108242
vn 0.000000 -1.000000 0.000000
vn -0.000000 -1.000000 0.000000
vn 0.000000 -1.000000 0.000000
vn 0.107547 -0.991798 0.069063
vn 0.108240 -0.991784 -0.068183
vn 0.000000 -1.000000 -0.000000
vn 0.000000 -1.000000 -0.000000
vn 0.069063 -0.991799 -0.107545
vn -0.068184 -0.991784 -0.108242
vn -0.000000 -1.000000 -0.000000
vn -0.000000 -1.000000 -0.000000
vn -0.107547 -0.991798 -0.069063
vn -0.108241 -0.991784 0.068182
vn -0.000000 -1.000000 0.000000
vn -0.974929 -0.222476 -0.004266
vn -0.807563 -0.174061 0.563511
vn -0.802620 -0.174065 -0.570529
vn -0.063568 -0.995986 0.063015
vn -0.089510 -0.995986 -0.000390
vn 0.000001 -1.000000 -0.000001
vn -0.063018 -0.995986 -0.063572
vn -0.694983 -0.159618 -0.701086
vn -0.563505 -0.174063 -0.807567
vn 0.004255 -0.222475 -0.974929
vn -0.701083 -0.159616 0.694985
vn -0.004257 -0.222476 0.974929
vn -0.570536 -0.174062 0.802615
vn -0.000390 -0.995986 0.089510
vn 0.563503 -0.174064 0.807568
vn 0.063018 -0.995986 0.063571
vn 0.694981 -0.159619 0.701087
vn 0.974929 -0.222477 0.004265
vn 0.802620 -0.174066 0.570527
vn 0.089511 -0.995986 0.000391
vn 0.807561 -0.174060 -0.563514
vn 0.063571 -0.995986 -0.063019
vn 0.701082 -0.159616 -0.694987
vn 0.570537 -0.174062 -0.802615
vn 0.000390 -0.995985 -0.089515
vn -0.716950 -0.494325 0.491554
vn -0.712644 -0.494316 -0.497785
vn -0.497785 -0.494326 0.712637
vn 0.491549 -0.494310 0.716964
vn 0.712648 -0.494314 0.497782
vn 0.716949 -0.494326 -0.491555
vn 0.497785 -0.494328 -0.712636
vn -0.491549 -0.494312 -0.716962
s 1
g sm_roadcone_01_lod1
usemtl phong1SG
f 7/3/1 5/1/2 2/2/3 4/4/4
f 6/5/5 1/6/6 2/2/3 5/1/2
f 6/5/5 8/7/7 3/8/8 1/6/6
f 7/3/1 8/7/7 6/5/5 5/1/2
f 15/11/9 13/9/10 10/10/11 12/12/12
f 14/13/13 9/14/14 10/10/11 13/9/10
f 14/13/13 16/15/15 11/16/16 9/14/14
f 15/11/9 16/15/15 14/13/13 13/9/10
f 23/19/17 21/17/18 18/18/19 20/20/20
f 22/21/21 17/22/22 18/18/19 21/17/18
f 22/21/21 24/23/23 19/24/24 17/22/22
f 23/19/17 24/23/23 22/21/21 21/17/18
f 27/27/25 10/10/11 9/14/14 26/26/26
f 29/29/27 18/18/19 17/22/22 28/28/28
f 2/2/3 1/6/6 34/30/29 25/25/30
f 35/35/31 33/34/32 34/30/29 1/6/6 3/8/8
f 36/36/33 25/25/30 26/26/26 9/14/14 11/16/16
f 37/37/34 27/27/25 28/28/28 17/22/22 19/24/24
f 38/39/35 29/29/27 30/38/36 31/40/37 39/41/38
f 32/42/39 33/34/32 35/35/31 40/43/40
f 2/2/3 25/25/30 36/36/33 4/4/4
f 27/27/25 37/37/34 12/12/12 10/10/11
f 18/18/19 29/29/27 38/39/35 20/20/20
f 48/44/41 42/45/42 8/7/7 49/46/43
f 49/46/43 8/7/7 7/3/1
f 50/47/44 49/46/43 7/3/1 43/31/45
f 50/47/44 43/31/45 16/15/15 51/48/46
f 51/48/46 16/15/15 15/11/9
f 52/49/47 51/48/46 15/11/9 44/32/48
f 52/49/47 44/32/48 24/23/23 53/50/49
f 53/50/49 24/23/23 23/19/17
f 54/51/50 53/50/49 23/19/17 45/33/51
f 54/51/50 45/33/51 46/53/52 55/52/53
f 48/44/41 55/52/53 47/54/54 42/45/42
s 5
f 57/142/55 56/137/56 48/139/57 49/141/58
f 58/117/59 57/142/55 49/141/58 50/145/60
f 59/87/61 58/117/59 50/145/60 51/86/62
f 60/143/63 59/87/61 51/86/62 52/144/64
f 61/140/65 60/143/63 52/144/64 53/138/66
f 62/135/67 61/140/65 53/138/66 54/136/68
f 63/134/69 62/135/67 54/136/68 55/133/70
s 6
f 41/55/71 56/56/72 57/57/73
f 41/55/71 57/57/73 58/58/74
f 41/55/71 58/58/74 59/59/75
f 41/55/71 59/59/75 60/60/76
f 41/55/71 60/60/76 61/61/77
f 41/55/71 61/61/77 62/62/78
f 41/55/71 62/62/78 63/63/79
s 1
f 55/52/53 46/53/52 47/54/54
s 5
f 56/137/56 63/134/69 55/133/70 48/139/57
s 6
f 41/55/71 63/63/79 56/56/72
s 1
f 47/54/54 64/64/80 32/42/39 40/43/40
f 65/65/81 31/40/37 32/42/39 64/64/80
f 65/65/81 46/53/52 39/41/38 31/40/37
f 47/54/54 46/53/52 65/65/81 64/64/80
f 42/45/42 47/54/54 40/43/40 35/35/31
f 42/45/42 35/35/31 3/8/8 8/7/7
f 43/31/45 7/3/1 4/4/4 36/36/33
f 43/31/45 36/36/33 11/16/16 16/15/15
f 44/32/48 15/11/9 12/12/12 37/37/34
f 44/32/48 37/37/34 19/24/24 24/23/23
f 45/33/51 23/19/17 20/20/20 38/39/35
f 46/53/52 45/33/51 38/39/35 39/41/38
s 7
f 29/71/82 67/72/83 69/73/84 30/149/85
s 8
f 71/148/86 26/146/87 25/77/88 73/147/89
f 33/78/90 68/79/91 72/80/92 34/81/93
s 7
f 27/82/94 70/83/95 66/84/96 28/85/97
f 28/85/97 66/84/96 67/72/83 29/71/82
s 8
f 30/74/98 69/150/99 68/79/91 33/78/90
s 7
f 70/83/95 27/82/94 26/76/100 71/75/101
s 8
f 73/147/89 25/77/88 34/81/93 72/80/92
s 1
f 33/34/32 32/42/39 31/40/37 30/38/36
s 11
f 75/89/102 74/90/103 71/70/104 73/114/105
f 70/69/106 71/70/104 74/90/103 76/91/107
f 76/91/107 77/92/108 66/68/109 70/69/106
f 67/67/110 66/68/109 77/92/108 78/93/111
f 78/93/111 79/94/112 69/66/113 67/67/110
f 68/115/114 69/66/113 79/94/112 80/95/115
f 80/95/115 81/96/116 72/88/117 68/115/114
f 73/114/105 72/88/117 81/96/116 75/89/102
s 12
f 83/132/118 91/131/119 92/130/120
s 13
f 85/97/121 83/98/122 82/99/123
f 83/98/122 84/100/124 82/99/123
s 12
f 84/128/125 83/132/118 92/130/120 93/118/126 90/120/127
f 85/129/128 86/127/129 98/126/130 91/131/119 83/132/118
s 13
f 86/101/131 85/97/121 82/99/123
s 12
f 86/127/129 97/116/132 98/126/130
s 13
f 87/102/133 86/101/131 82/99/123
s 12
f 87/125/134 88/124/135 96/123/136 97/116/132 86/127/129
s 13
f 88/103/137 87/102/133 82/99/123
s 12
f 88/124/135 95/122/138 96/123/136
s 13
f 89/104/139 88/103/137 82/99/123
s 12
f 89/121/140 90/120/127 94/119/141 95/122/138 88/124/135
s 13
f 90/105/142 89/104/139 82/99/123
s 12
f 90/120/127 93/118/126 94/119/141
s 13
f 84/100/124 90/105/142 82/99/123
s 11
f 91/106/143 81/96/116 80/95/115 92/107/144
f 81/96/116 91/106/143 98/108/145 75/89/102
f 98/108/145 97/109/146 74/90/103 75/89/102
f 74/90/103 97/109/146 96/110/147 76/91/107
f 96/110/147 95/111/148 77/92/108 76/91/107
f 77/92/108 95/111/148 94/112/149 78/93/111
f 94/112/149 93/113/150 79/94/112 78/93/111
f 79/94/112 93/113/150 92/107/144 80/95/115
